<?xml version="1.0" encoding="utf-8"?>
<!-- Generator: Adobe Illustrator 16.0.0, SVG Export Plug-In . SVG Version: 6.00 Build 0)  -->
<!DOCTYPE svg PUBLIC "-//W3C//DTD SVG 1.1//EN" "http://www.w3.org/Graphics/SVG/1.1/DTD/svg11.dtd">
<svg version="1.1" id="Layer_1" xmlns="http://www.w3.org/2000/svg" xmlns:xlink="http://www.w3.org/1999/xlink" x="0px" y="0px"
	 width="32px" height="32px" viewBox="0 0 32 32" enable-background="new 0 0 32 32" xml:space="preserve">
<g>
	<path d="M18.939,31.69v-1.833h0.577c0.497,0,0.961-0.036,1.395-0.106c0.435-0.072,0.811-0.218,1.131-0.438
		c0.319-0.22,0.575-0.537,0.768-0.948c0.192-0.412,0.287-0.96,0.287-1.643V16.494H8.901v10.229c0,0.683,0.095,1.23,0.287,1.643
		c0.192,0.411,0.448,0.729,0.768,0.948c0.32,0.22,0.699,0.365,1.14,0.438c0.442,0.07,0.902,0.106,1.386,0.106h0.577v1.833H0.354
		v-1.833h0.555c0.497,0,0.961-0.036,1.396-0.106c0.434-0.072,0.813-0.218,1.141-0.438c0.326-0.22,0.582-0.537,0.769-0.948
		c0.184-0.412,0.275-0.96,0.275-1.643v-21.4c0-0.639-0.096-1.153-0.287-1.545C4.009,3.386,3.749,3.085,3.423,2.872
		C3.096,2.659,2.717,2.52,2.281,2.456C1.85,2.391,1.391,2.36,0.908,2.36H0.354V0.527h12.705V2.36h-0.577
		c-0.483,0-0.943,0.035-1.386,0.107c-0.44,0.07-0.819,0.217-1.14,0.437C9.637,3.124,9.381,3.44,9.188,3.853
		C8.996,4.264,8.901,4.812,8.901,5.494v8.823h14.195V5.494c0-0.683-0.095-1.23-0.287-1.642c-0.192-0.412-0.448-0.729-0.768-0.948
		c-0.32-0.22-0.696-0.366-1.131-0.437c-0.434-0.072-0.897-0.107-1.395-0.107h-0.577V0.527h12.705V2.36H31.09
		c-0.497,0-0.961,0.035-1.396,0.107c-0.434,0.07-0.813,0.217-1.141,0.437c-0.326,0.22-0.582,0.536-0.767,0.948
		c-0.186,0.411-0.277,0.959-0.277,1.642v21.442c0,0.64,0.096,1.155,0.287,1.545c0.192,0.392,0.452,0.687,0.778,0.884
		c0.327,0.2,0.706,0.331,1.142,0.396c0.433,0.064,0.891,0.096,1.373,0.096h0.555v1.833H18.939z"/>
</g>
</svg>
