<svg style="display: none;" viewBox="0 0 100 100" xmlns="http://www.w3.org/2000/svg"><symbol viewBox="0 0 40.007 40.007" id="shape-arrow-up"><title>arrow-up</title> <g id="arrow-up-_x34_99._Up"> <g> <path d="M37.324,10.004C31.802,0.438,19.569-2.84,10.004,2.683C0.438,8.205-2.84,20.438,2.684,30.004
			c5.522,9.565,17.754,12.843,27.32,7.32C39.569,31.801,42.848,19.569,37.324,10.004z M28.004,33.859
			c-7.652,4.418-17.438,1.797-21.856-5.855c-4.418-7.653-1.796-17.438,5.856-21.856c7.652-4.419,17.438-1.797,21.856,5.856
			C38.278,19.656,35.656,29.441,28.004,33.859z M21.418,15.418c-0.391-0.391-0.902-0.586-1.414-0.586s-1.023,0.195-1.414,0.586
			l-5.657,5.656c-0.781,0.781-0.781,2.048,0,2.829v-0.001c0.781,0.781,2.048,0.781,2.828,0l4.243-4.242l4.242,4.242
			c0.781,0.781,2.048,0.781,2.828,0v0.001c0.781-0.781,0.781-2.048,0-2.829L21.418,15.418z"/> </g> </g>                </symbol><symbol viewBox="0 0 19.341 25.993" id="shape-forms"><title>forms</title> <g> <path style="fill:#2D2D2D;" d="M18.488,0H0.853C0.381,0,0,0.382,0,0.853V25.14c0,0.472,0.381,0.854,0.853,0.854h13.083
		c0.21,0,0.413-0.077,0.57-0.218l4.55-4.072c0.181-0.162,0.285-0.394,0.285-0.636V0.853C19.341,0.382,18.959,0,18.488,0z
		 M17.635,20.59h-3.97v3.648l-0.053,0.047H1.707V1.707h15.928V20.59z"/> <path style="fill:#2D2D2D;" d="M11.236,15.173H6.899c-0.247,0-0.446,0.2-0.446,0.446v4.337c0,0.247,0.199,0.446,0.446,0.446h4.337
		c0.246,0,0.446-0.2,0.446-0.446V15.62C11.683,15.374,11.482,15.173,11.236,15.173z M10.791,19.511H7.345v-3.446h3.446V19.511z"/> <path style="fill:#2D2D2D;" d="M11.626,8.569V8.537c0-0.218-0.177-0.394-0.394-0.394H6.902c-0.217,0-0.394,0.176-0.394,0.394v4.329
		c0,0.219,0.177,0.395,0.394,0.395h4.331c0.217,0,0.394-0.176,0.394-0.395v-1.543l-0.696,0.696
		c-0.026,0.026-0.062,0.039-0.092,0.062v0.393H7.296V8.93h3.543v0.426L11.626,8.569z"/> <path style="fill:#2D2D2D;" d="M12.438,8.313l-2.196,2.195l-0.84-0.841c-0.227-0.227-0.593-0.227-0.82,0
		c-0.227,0.227-0.227,0.594,0,0.819l1.251,1.252c0.113,0.113,0.262,0.17,0.41,0.17c0.149,0,0.298-0.057,0.41-0.17l2.605-2.606
		c0.228-0.227,0.228-0.593,0-0.82C13.032,8.086,12.665,8.086,12.438,8.313z"/> <rect x="3.978" y="4.159" style="fill:#2D2D2D;" width="11.385" height="1.189"/> </g>                </symbol><symbol viewBox="0 0 32 32" id="shape-headers"><title>headers</title> <g> <path d="M18.939,31.69v-1.833h0.577c0.497,0,0.961-0.036,1.395-0.106c0.435-0.072,0.811-0.218,1.131-0.438
		c0.319-0.22,0.575-0.537,0.768-0.948c0.192-0.412,0.287-0.96,0.287-1.643V16.494H8.901v10.229c0,0.683,0.095,1.23,0.287,1.643
		c0.192,0.411,0.448,0.729,0.768,0.948c0.32,0.22,0.699,0.365,1.14,0.438c0.442,0.07,0.902,0.106,1.386,0.106h0.577v1.833H0.354
		v-1.833h0.555c0.497,0,0.961-0.036,1.396-0.106c0.434-0.072,0.813-0.218,1.141-0.438c0.326-0.22,0.582-0.537,0.769-0.948
		c0.184-0.412,0.275-0.96,0.275-1.643v-21.4c0-0.639-0.096-1.153-0.287-1.545C4.009,3.386,3.749,3.085,3.423,2.872
		C3.096,2.659,2.717,2.52,2.281,2.456C1.85,2.391,1.391,2.36,0.908,2.36H0.354V0.527h12.705V2.36h-0.577
		c-0.483,0-0.943,0.035-1.386,0.107c-0.44,0.07-0.819,0.217-1.14,0.437C9.637,3.124,9.381,3.44,9.188,3.853
		C8.996,4.264,8.901,4.812,8.901,5.494v8.823h14.195V5.494c0-0.683-0.095-1.23-0.287-1.642c-0.192-0.412-0.448-0.729-0.768-0.948
		c-0.32-0.22-0.696-0.366-1.131-0.437c-0.434-0.072-0.897-0.107-1.395-0.107h-0.577V0.527h12.705V2.36H31.09
		c-0.497,0-0.961,0.035-1.396,0.107c-0.434,0.07-0.813,0.217-1.141,0.437c-0.326,0.22-0.582,0.536-0.767,0.948
		c-0.186,0.411-0.277,0.959-0.277,1.642v21.442c0,0.64,0.096,1.155,0.287,1.545c0.192,0.392,0.452,0.687,0.778,0.884
		c0.327,0.2,0.706,0.331,1.142,0.396c0.433,0.064,0.891,0.096,1.373,0.096h0.555v1.833H18.939z"/> </g> </symbol><symbol viewBox="0 0 32 32" id="shape-html5"><title>html5</title> <path d="M1.892 0l2.567 28.801 11.524 3.199 11.554-3.204 2.572-28.796h-28.216zM25.336 26.963l-9.288 2.574v0.015l-0.024-0.007-0.024 0.007v-0.015l-9.288-2.574-2.195-24.609h23.015l-2.195 24.609zM20.336 16.569l-0.408 4.58-3.944 1.065-3.933-1.060-0.252-2.82h-3.547l0.495 5.547 7.252 2.006 7.229-2.006 0.97-10.844h-12.874l-0.322-3.617h13.517l0.316-3.532h-17.694l0.953 10.681z" fill="#000000"/> </symbol><symbol viewBox="0 0 32 32" id="shape-images"><title>images</title> <path d="M0 4v26h32v-26h-32zM30 28h-28v-22h28v22zM22 11c0-1.657 1.343-3 3-3s3 1.343 3 3c0 1.657-1.343 3-3 3s-3-1.343-3-3zM28 26h-24l6-16 8 10 4-3z" fill="#000000"/> </symbol><symbol viewBox="0 0 512 512" id="shape-lightbulb"><title>lightbulb</title> <path d="M256,32c77.313,0,140,62.688,140,140c0,76.125-45.875,85-54.5,168c0,7.75-6.25,14-14,14h-143c-7.75,0-14-6.25-14-14h-0.031
	C161.875,257,116,248.125,116,172C116,94.688,178.688,32,256,32 M326,368c7.75,0,14,6.25,14,14s-6.25,14-14,14H186
	c-7.75,0-14-6.25-14-14s6.25-14,14-14H326 M326,410c7.75,0,14,6.25,14,14s-6.25,14-14,14H186c-7.75,0-14-6.25-14-14s6.25-14,14-14
	H326 M312,452c0,15.469-12.531,28-28,28h-56c-15.469,0-28-12.531-28-28H312 M256,0C161.156,0,84,77.156,84,172
	c0,47.625,15.563,74.969,29.25,99.125c11.625,20.438,21.688,38.156,25.281,71.094c0.344,7.313,2.438,14.188,5.844,20.219
	C141.563,368.375,140,375,140,382c0,7.563,1.813,14.688,5.063,21c-3.25,6.313-5.063,13.438-5.063,21
	c0,19.719,12.469,36.563,29.938,43.094C176.625,492.906,200.125,512,228,512h56c27.875,0,51.375-19.094,58.063-44.906
	C359.531,460.563,372,443.719,372,424c0-7.563-1.844-14.688-5.094-21c3.25-6.313,5.094-13.438,5.094-21
	c0-7-1.563-13.625-4.375-19.531c3.406-6.063,5.469-12.969,5.813-20.281c3.625-32.906,13.656-50.594,25.281-71.063
	C412.438,247,428,219.625,428,172C428,77.156,350.844,0,256,0L256,0z"/> </symbol><symbol viewBox="0 0 100 100" id="shape-menu"><title>menu</title> <g> <path d="M93.417,5.333H6.583c-1.654,0-3,1.346-3,3v13.334c0,1.654,1.346,3,3,3h86.833c1.654,0,3-1.346,3-3V8.333
		C96.417,6.679,95.071,5.333,93.417,5.333z"/> <path d="M93.417,40.333H6.583c-1.654,0-3,1.346-3,3v13.334c0,1.654,1.346,3,3,3h86.833c1.654,0,3-1.346,3-3V43.333
		C96.417,41.679,95.071,40.333,93.417,40.333z"/> <path d="M93.417,75.333H6.583c-1.654,0-3,1.346-3,3v13.334c0,1.654,1.346,3,3,3h86.833c1.654,0,3-1.346,3-3V78.333
		C96.417,76.679,95.071,75.333,93.417,75.333z"/> </g> </symbol><symbol viewBox="0 0 32 32" id="shape-paragraphs"><title>paragraphs</title> <path d="M0 6h32v2h-32zM6 10h20v2h-20zM6 18h20v2h-20zM6 26h20v2h-20zM0 14h32v2h-32zM0 22h32v2h-32z" fill="#000000"/> </symbol><symbol viewBox="0 0 32 32" id="shape-videos"><title>videos</title> <path d="M0 4v24h32v-24h-32zM6 26h-4v-4h4v4zM6 18h-4v-4h4v4zM6 10h-4v-4h4v4zM24 26h-16v-20h16v20zM30 26h-4v-4h4v4zM30 18h-4v-4h4v4zM30 10h-4v-4h4v4zM12 10v12l8-6z" fill="#000000"/> </symbol></svg>